<?xml version="1.0" encoding="UTF-8" standalone="no"?>
<!-- Created with Inkscape (http://www.inkscape.org/) -->

<svg
   xmlns:dc="http://purl.org/dc/elements/1.1/"
   xmlns:cc="http://creativecommons.org/ns#"
   xmlns:rdf="http://www.w3.org/1999/02/22-rdf-syntax-ns#"
   xmlns:svg="http://www.w3.org/2000/svg"
   xmlns="http://www.w3.org/2000/svg"
   xmlns:sodipodi="http://sodipodi.sourceforge.net/DTD/sodipodi-0.dtd"
   xmlns:inkscape="http://www.inkscape.org/namespaces/inkscape"
   width="210mm"
   height="297mm"
   viewBox="0 0 744.09448819 1052.3622047"
   id="svg4142"
   version="1.1"
   inkscape:version="0.91 r13725"
   sodipodi:docname="ACM-W_Logo_2.svg">
  <defs
     id="defs4144" />
  <sodipodi:namedview
     id="base"
     pagecolor="#ffffff"
     bordercolor="#666666"
     borderopacity="1.0"
     inkscape:pageopacity="0.0"
     inkscape:pageshadow="2"
     inkscape:zoom="0.9899495"
     inkscape:cx="-59.29165"
     inkscape:cy="508.79558"
     inkscape:document-units="px"
     inkscape:current-layer="layer1"
     showgrid="false"
     inkscape:window-width="1920"
     inkscape:window-height="1017"
     inkscape:window-x="-8"
     inkscape:window-y="-8"
     inkscape:window-maximized="1" />
  <metadata
     id="metadata4147">
    <rdf:RDF>
      <cc:Work
         rdf:about="">
        <dc:format>image/svg+xml</dc:format>
        <dc:type
           rdf:resource="http://purl.org/dc/dcmitype/StillImage" />
        <dc:title />
      </cc:Work>
    </rdf:RDF>
  </metadata>
  <g
     inkscape:label="Layer 1"
     inkscape:groupmode="layer"
     id="layer1">
    <g
       id="g9669"
       inkscape:export-xdpi="90"
       inkscape:export-ydpi="90">
      <path
         inkscape:connector-curvature="0"
         id="path6754"
         d="m 458.10418,498.29353 c 81.31728,80.8122 7.07106,178.797 7.07106,178.797 l -359.6143,0"
         style="fill:#ffffff;fill-rule:evenodd;stroke:#000000;stroke-width:2.47248077;stroke-linecap:round;stroke-linejoin:round;stroke-miterlimit:4;stroke-dasharray:none;stroke-opacity:1" />
      <path
         id="path6746"
         d="m 456.66016,517.26562 c -0.42977,-0.35327 -0.82261,-0.74856 -1.28516,-1.06054 -0.94016,-0.63412 -1.94573,-1.18087 -3.00391,-1.62696 -1.05817,-0.44608 -2.16942,-0.79263 -3.32226,-1.02734 -1.15285,-0.23471 -2.34809,-0.35742 -3.57227,-0.35742 l -61.11328,0 c -1.22418,0 -2.41942,0.12271 -3.57226,0.35742 -1.15285,0.23471 -2.2641,0.58126 -3.32227,1.02734 -1.05817,0.44609 -2.06179,0.99284 -3.00195,1.62696 -0.94016,0.63412 -1.81643,1.35549 -2.61524,2.1543 -0.79881,0.7988 -1.52018,1.67507 -2.15429,2.61523 -0.63412,0.94016 -1.18087,1.94378 -1.62696,3.00195 -0.44608,1.05818 -0.79263,2.16942 -1.02734,3.32227 -0.23471,1.15284 -0.35742,2.34809 -0.35742,3.57226 l 0,53.03321 c 0,1.22418 0.12271,2.41746 0.35742,3.57031 0.1406,0.6906 0.3971,1.33192 0.61523,1.99023 a 160.87088,20.726617 0 0 0 82.56836,-17.76757 8.8637009,77.317314 0 0 0 0.0742,-0.14258 l 0.10156,0 0,-0.19922 a 8.8637009,77.317314 0 0 0 6.25782,-54.08985 z"
         style="fill:#ffffff;fill-opacity:1;stroke:#000000;stroke-width:2.5;stroke-linecap:square;stroke-miterlimit:4;stroke-dasharray:none"
         inkscape:connector-curvature="0" />
      <path
         id="path6743"
         d="m 289.39648,402.5293 a 160.83062,19.461162 0 0 0 -158.68164,16.35351 26.433985,79.309074 0 0 0 -21.43164,77.81055 26.433985,79.309074 0 0 0 21.49805,77.87109 160.87088,20.726617 0 0 0 158.69336,17.52735 160.87088,20.726617 0 0 0 78.18359,-2.62696 c -0.21813,-0.65831 -0.47463,-1.29963 -0.61523,-1.99023 -0.23471,-1.15285 -0.35742,-2.34613 -0.35742,-3.57031 l 0,-53.03321 c 0,-1.22417 0.12271,-2.41942 0.35742,-3.57226 0.23471,-1.15285 0.58126,-2.26409 1.02734,-3.32227 0.44609,-1.05817 0.99284,-2.06179 1.62696,-3.00195 0.63411,-0.94016 1.35548,-1.81643 2.15429,-2.61523 0.79881,-0.79881 1.67508,-1.52018 2.61524,-2.1543 0.94016,-0.63412 1.94378,-1.18087 3.00195,-1.62696 1.05817,-0.44608 2.16942,-0.79263 3.32227,-1.02734 1.15284,-0.23471 2.34808,-0.35742 3.57226,-0.35742 l 61.11328,0 c 1.22418,0 2.41942,0.12271 3.57227,0.35742 1.15284,0.23471 2.26409,0.58126 3.32226,1.02734 1.05818,0.44609 2.06375,0.99284 3.00391,1.62696 0.46255,0.31198 0.85539,0.70727 1.28516,1.06054 a 8.8637009,77.317314 0 0 0 0.33398,-20.60546 8.8637009,77.317314 0 0 0 -0.28516,-18.98243 c -0.3663,0.29205 -0.69265,0.62996 -1.08203,0.89258 -0.94016,0.63412 -1.94573,1.18087 -3.0039,1.62696 -1.05818,0.44608 -2.16942,0.79263 -3.32227,1.02734 -1.15284,0.23471 -2.34613,0.35742 -3.57031,0.35742 l -61.11524,0 c -1.22417,0 -2.41746,-0.12271 -3.57031,-0.35742 -1.15284,-0.23471 -2.26409,-0.58126 -3.32226,-1.02734 -1.05818,-0.44609 -2.06375,-0.99284 -3.00391,-1.62696 -0.94016,-0.63411 -1.81642,-1.35548 -2.61523,-2.15429 -0.79881,-0.79881 -1.52018,-1.67508 -2.1543,-2.61524 -0.63412,-0.94016 -1.18087,-1.94574 -1.62695,-3.0039 -0.44609,-1.05818 -0.79264,-2.16942 -1.02735,-3.32227 -0.23471,-1.15285 -0.35742,-2.34613 -0.35742,-3.57031 l 0,-53.03321 c 0,-1.22417 0.12271,-2.41942 0.35742,-3.57226 0.15979,-0.78482 0.43975,-1.51906 0.69922,-2.26172 a 160.83062,19.461162 0 0 0 -78.59766,-2.50781 z"
         style="fill:#ffffff;fill-opacity:1;stroke:#000000;stroke-width:2.5;stroke-linecap:square;stroke-miterlimit:4;stroke-dasharray:none"
         inkscape:connector-curvature="0" />
      <path
         id="rect4722"
         d="m 367.99414,405.03711 c -0.25947,0.74266 -0.53943,1.4769 -0.69922,2.26172 -0.23471,1.15284 -0.35742,2.34809 -0.35742,3.57226 l 0,53.03321 c 0,1.22418 0.12271,2.41746 0.35742,3.57031 0.23471,1.15285 0.58126,2.26409 1.02735,3.32227 0.44608,1.05817 0.99283,2.06374 1.62695,3.0039 0.63412,0.94016 1.35549,1.81643 2.1543,2.61524 0.79881,0.79881 1.67507,1.52018 2.61523,2.15429 0.94016,0.63412 1.94573,1.18087 3.00391,1.62696 1.05817,0.44608 2.16942,0.79263 3.32226,1.02734 1.15285,0.23471 2.34614,0.35742 3.57031,0.35742 l 61.11524,0 c 1.22418,0 2.41747,-0.12271 3.57031,-0.35742 1.15285,-0.23471 2.26409,-0.58126 3.32227,-1.02734 1.05817,-0.44609 2.06374,-0.99284 3.0039,-1.62696 0.38938,-0.26262 0.71573,-0.60053 1.08203,-0.89258 a 8.8637009,77.317314 0 0 0 -6.30664,-55.65625 l 0,-0.0527 -0.0234,0 a 8.8637009,77.317314 0 0 0 -0.77735,-1.4668 160.83062,19.461162 0 0 0 -81.60742,-15.46484 z"
         style="fill:#ffffff;fill-opacity:1;stroke:#000000;stroke-width:2.5;stroke-linecap:square;stroke-miterlimit:4;stroke-dasharray:none"
         inkscape:connector-curvature="0" />
      <rect
         transform="scale(1,-1)"
         rx="17.67767"
         ry="11.111681"
         y="-506.13235"
         x="378.30212"
         height="17.192892"
         width="65.65992"
         id="rect6701-6"
         style="fill:#ffffff;fill-opacity:1;stroke:#000000;stroke-width:2.5;stroke-linecap:square;stroke-linejoin:round;stroke-miterlimit:4;stroke-dasharray:none;stroke-dashoffset:0" />
      <text
         sodipodi:linespacing="125%"
         id="text6748"
         y="662.74695"
         x="287.26404"
         style="font-style:normal;font-variant:normal;font-weight:normal;font-stretch:normal;font-size:93.27204132px;line-height:125%;font-family:'Proxima Nova';-inkscape-font-specification:'Proxima Nova, Normal';text-align:center;letter-spacing:0px;word-spacing:0px;writing-mode:lr-tb;text-anchor:middle;fill:#000000;fill-opacity:1;stroke:none;stroke-width:1px;stroke-linecap:butt;stroke-linejoin:miter;stroke-opacity:1"
         xml:space="preserve"><tspan
           y="662.74695"
           x="287.26404"
           id="tspan6750"
           sodipodi:role="line">ACM-<tspan
   id="tspan6756"
   style="fill:#800080">W</tspan></tspan></text>
    </g>
  </g>
</svg>
