<?xml version="1.0" encoding="UTF-8" standalone="no"?>
<!-- Created with Inkscape (http://www.inkscape.org/) -->

<svg
   xmlns:dc="http://purl.org/dc/elements/1.1/"
   xmlns:cc="http://creativecommons.org/ns#"
   xmlns:rdf="http://www.w3.org/1999/02/22-rdf-syntax-ns#"
   xmlns:svg="http://www.w3.org/2000/svg"
   xmlns="http://www.w3.org/2000/svg"
   xmlns:sodipodi="http://sodipodi.sourceforge.net/DTD/sodipodi-0.dtd"
   xmlns:inkscape="http://www.inkscape.org/namespaces/inkscape"
   width="210mm"
   height="297mm"
   viewBox="0 0 744.09448819 1052.3622047"
   id="svg6758"
   version="1.1"
   inkscape:version="0.91 r13725"
   sodipodi:docname="Logo_Trans.svg">
  <defs
     id="defs6760" />
  <sodipodi:namedview
     id="base"
     pagecolor="#ffffff"
     bordercolor="#666666"
     borderopacity="1.0"
     inkscape:pageopacity="0.0"
     inkscape:pageshadow="2"
     inkscape:zoom="0.98994949"
     inkscape:cx="366.9666"
     inkscape:cy="752.61844"
     inkscape:document-units="px"
     inkscape:current-layer="g8502"
     showgrid="false"
     inkscape:window-width="1920"
     inkscape:window-height="1057"
     inkscape:window-x="-8"
     inkscape:window-y="-8"
     inkscape:window-maximized="1" />
  <metadata
     id="metadata6763">
    <rdf:RDF>
      <cc:Work
         rdf:about="">
        <dc:format>image/svg+xml</dc:format>
        <dc:type
           rdf:resource="http://purl.org/dc/dcmitype/StillImage" />
        <dc:title></dc:title>
      </cc:Work>
    </rdf:RDF>
  </metadata>
  <g
     inkscape:label="Layer 1"
     inkscape:groupmode="layer"
     id="layer1">
    <g
       id="g8502"
       inkscape:export-xdpi="500"
       inkscape:export-ydpi="500"
       transform="translate(-192.93914,34.345187)">
      <g
         id="g4179">
        <path
           id="rect7330-6-3-2"
           transform="translate(192.93914,-34.345187)"
           d="M 371.25586 63.681641 L 371.25586 226.53906 L 534.11133 226.53906 L 534.11133 63.681641 L 371.25586 63.681641 z M 452.55859 91.71875 C 452.67796 91.71875 452.80989 91.741317 452.95312 91.789062 C 453.2396 91.884554 453.47699 91.884555 453.66797 91.789062 C 463.6946 91.598079 471.95579 93.318582 478.44922 96.947266 C 484.94265 100.57595 490.0983 105.39809 493.91797 111.41406 C 494.96838 113.03742 495.82765 114.70693 496.49609 116.42578 C 497.16454 118.04914 497.78643 119.86382 498.35938 121.86914 C 498.55036 122.53758 498.74066 123.30268 498.93164 124.16211 C 499.12263 125.02153 499.07554 125.83177 498.78906 126.5957 C 498.59808 127.16865 498.21553 127.5512 497.64258 127.74219 C 497.16512 127.83768 496.59227 127.98089 495.92383 128.17188 L 494.77734 128.17188 C 494.2044 128.36286 493.53542 128.45898 492.77148 128.45898 C 492.10304 128.36349 491.43602 128.31445 490.76758 128.31445 C 489.90816 128.31445 488.85663 128.36349 487.61523 128.45898 L 484.17773 128.45898 C 483.03183 128.36349 481.98226 128.26737 481.02734 128.17188 C 480.07243 127.98089 479.35637 127.74155 478.87891 127.45508 C 478.11497 126.78664 477.54212 125.88028 477.16016 124.73438 C 476.77819 123.58848 476.29951 122.58599 475.72656 121.72656 C 473.91222 118.57534 471.52469 116.09169 468.56445 114.27734 C 466.55913 113.03595 464.31482 112.03346 461.83203 111.26953 C 460.20867 110.69658 458.15661 110.41016 455.67383 110.41016 C 453.28653 110.41016 451.18543 110.6495 449.37109 111.12695 C 448.60716 111.31794 447.8911 111.50824 447.22266 111.69922 C 446.6497 111.79471 446.02977 111.98696 445.36133 112.27344 C 438.86789 115.0427 434.28314 119.6255 431.60938 126.02344 C 431.13192 127.16934 430.70228 128.36212 430.32031 129.60352 C 429.93835 130.84491 429.5087 132.13577 429.03125 133.47266 C 428.93576 134.14109 428.83963 134.76103 428.74414 135.33398 C 428.64865 135.90693 428.55447 136.52687 428.45898 137.19531 C 428.268 137.76826 428.17188 138.39015 428.17188 139.05859 C 428.26737 139.63155 428.22028 140.25148 428.0293 140.91992 C 427.83832 141.68386 427.74219 142.49604 427.74219 143.35547 C 427.83768 144.1194 427.88477 144.88255 427.88477 145.64648 C 427.88477 146.02845 427.83768 146.411 427.74219 146.79297 C 427.74219 147.17494 427.78927 147.55749 427.88477 147.93945 L 427.88477 149.22852 C 428.07575 149.70597 428.12479 150.1827 428.0293 150.66016 C 428.0293 151.13762 428.12347 151.61434 428.31445 152.0918 C 428.31445 152.66474 428.41058 153.42985 428.60156 154.38477 C 428.79255 155.43517 428.98285 156.43766 429.17383 157.39258 C 429.36481 158.252 429.60415 159.11128 429.89062 159.9707 C 431.22751 163.98135 432.94606 167.41845 435.04688 170.2832 C 437.1477 173.05246 439.91778 175.34581 443.35547 177.16016 C 444.40588 177.63761 445.50449 178.06725 446.65039 178.44922 C 447.79629 178.7357 449.03617 179.06921 450.37305 179.45117 C 450.85051 179.54666 451.28014 179.64279 451.66211 179.73828 L 453.0957 179.73828 L 454.24219 179.73828 C 454.71965 179.92927 455.33958 180.02344 456.10352 180.02344 C 456.86745 179.92794 457.48738 179.83377 457.96484 179.73828 C 458.53779 179.73828 458.96743 179.68924 459.25391 179.59375 C 460.39981 179.40277 461.45134 179.21247 462.40625 179.02148 C 463.45666 178.8305 464.45914 178.49699 465.41406 178.01953 C 467.61037 177.06462 469.47213 175.82279 471 174.29492 C 472.62336 172.67156 474.05549 170.85689 475.29688 168.85156 C 475.86983 167.89665 476.3485 166.84707 476.73047 165.70117 C 477.11244 164.55527 477.54207 163.40762 478.01953 162.26172 C 478.306 161.21131 478.59243 160.25786 478.87891 159.39844 C 479.16538 158.53901 479.78531 157.87004 480.74023 157.39258 C 481.31318 157.2016 482.02925 157.10547 482.88867 157.10547 L 485.32422 157.10547 L 494.06055 157.10547 L 496.64062 157.10547 C 497.59555 157.10547 498.35869 157.29772 498.93164 157.67969 C 499.60008 158.15715 499.93359 158.9203 499.93359 159.9707 C 500.02909 161.02111 499.93491 162.0236 499.64844 162.97852 L 498.78906 166.8457 C 498.31161 168.27808 497.83293 169.66312 497.35547 171 C 496.9735 172.33689 496.44774 173.62579 495.7793 174.86719 C 495.30184 175.63112 494.92124 176.39622 494.63477 177.16016 C 494.34829 177.8286 493.96573 178.49562 493.48828 179.16406 C 488.23623 187.37634 480.59693 193.1068 470.57031 196.35352 C 469.51991 196.73548 468.47034 197.02191 467.41992 197.21289 L 464.26758 197.78516 C 463.79012 197.97614 463.3134 198.02518 462.83594 197.92969 C 462.45397 197.92969 462.02433 198.02386 461.54688 198.21484 L 459.54102 198.21484 C 458.96807 198.31033 458.34813 198.40646 457.67969 198.50195 L 455.38672 198.50195 L 452.80859 198.50195 C 451.94917 198.50195 451.13698 198.40582 450.37305 198.21484 C 450.08657 198.11935 449.60985 198.07227 448.94141 198.07227 L 446.93555 197.78516 C 446.26711 197.68967 445.55104 197.59354 444.78711 197.49805 C 443.83219 197.21157 442.87874 196.97419 441.92383 196.7832 C 441.0644 196.59222 440.15609 196.35289 439.20117 196.06641 L 436.62305 195.20703 C 435.76363 194.82506 434.95143 194.44251 434.1875 194.06055 C 428.458 191.57776 423.58878 188.28387 419.57812 184.17773 C 415.66296 179.9761 412.46325 175.01075 409.98047 169.28125 C 409.40752 167.84888 408.93079 166.41675 408.54883 164.98438 C 408.16686 163.552 407.73723 162.07084 407.25977 160.54297 C 407.06878 160.06551 406.97266 159.68491 406.97266 159.39844 C 406.97266 159.01647 406.92556 158.63392 406.83008 158.25195 C 406.63909 157.39253 406.49588 156.48616 406.40039 155.53125 C 406.3049 154.57633 406.16169 153.66802 405.9707 152.80859 C 405.77972 152.33114 405.68359 151.94859 405.68359 151.66211 C 405.77908 151.28014 405.77908 150.89954 405.68359 150.51758 L 405.68359 147.79492 C 405.49261 147.31746 405.39648 146.6014 405.39648 145.64648 C 405.39648 144.69156 405.49261 143.9755 405.68359 143.49805 C 405.77908 143.21157 405.77908 142.92515 405.68359 142.63867 L 405.68359 141.7793 L 405.68359 140.49023 C 405.87457 139.7263 405.9707 138.91411 405.9707 138.05469 L 406.25586 135.47656 C 406.44684 134.71263 406.59005 133.99657 406.68555 133.32812 C 406.78104 132.56419 406.92621 131.80104 407.11719 131.03711 C 407.49915 129.70023 407.83267 128.41131 408.11914 127.16992 C 408.40562 125.83304 408.78817 124.59121 409.26562 123.44531 L 410.69727 119.7207 C 411.27021 118.47931 411.89015 117.33361 412.55859 116.2832 C 414.08646 113.60944 415.6618 111.22191 417.28516 109.12109 C 417.76262 108.45265 418.28838 107.83272 418.86133 107.25977 L 420.58008 105.54102 C 422.96737 103.15372 425.45102 101.14875 428.0293 99.525391 C 430.70306 97.806541 433.71052 96.27829 437.05273 94.941406 C 438.19863 94.463948 439.39338 94.081397 440.63477 93.794922 C 441.87616 93.412955 443.16507 93.079443 444.50195 92.792969 C 445.07491 92.601985 445.64776 92.505859 446.2207 92.505859 C 446.79366 92.505859 447.31746 92.409733 447.79492 92.21875 C 448.55886 92.123258 449.27492 92.076172 449.94336 92.076172 L 452.23633 91.789062 C 452.33182 91.741317 452.43923 91.71875 452.55859 91.71875 z "
           style="fill:#c5a6e8;fill-opacity:1;stroke:none;stroke-width:2.5;stroke-linecap:round;stroke-linejoin:round;stroke-miterlimit:4;stroke-dasharray:none;stroke-dashoffset:0" />
        <path
           id="rect7330-6-2-2"
           transform="translate(192.93914,-34.345187)"
           d="M 195.21875 63.681641 L 195.21875 226.53906 L 358.07422 226.53906 L 358.07422 63.681641 L 195.21875 63.681641 z M 285.5293 94.027344 C 286.2992 94.063153 286.93617 94.261047 287.4375 94.619141 C 288.48791 95.192091 289.15493 96.051366 289.44141 97.197266 C 289.82337 98.247674 290.25496 99.346287 290.73242 100.49219 C 291.40086 102.11555 292.0208 103.73797 292.59375 105.36133 C 293.1667 106.88919 293.78664 108.46453 294.45508 110.08789 L 295.0293 111.80664 L 295.60156 113.52539 C 296.3655 115.43522 297.08156 117.34603 297.75 119.25586 C 298.41845 121.0702 299.1345 122.93196 299.89844 124.8418 C 301.80827 129.61638 303.57587 134.43852 305.19922 139.30859 C 306.91807 144.17867 308.77983 149.0008 310.78516 153.77539 C 310.97614 154.15736 311.07031 154.53991 311.07031 154.92188 C 311.16581 155.20835 311.30902 155.54186 311.5 155.92383 L 313.2207 160.50781 L 314.93945 165.0918 C 315.32142 165.85573 315.60784 166.61888 315.79883 167.38281 C 315.98981 168.05125 316.2272 168.76732 316.51367 169.53125 C 317.75507 172.58698 318.90077 175.64349 319.95117 178.69922 C 321.00159 181.75495 322.14729 184.76242 323.38867 187.72266 C 323.57966 188.00913 323.67578 188.29555 323.67578 188.58203 C 323.67578 188.77301 323.77191 189.01235 323.96289 189.29883 C 324.05838 189.68079 324.20159 190.15752 324.39258 190.73047 C 324.67905 191.30342 324.86935 191.9253 324.96484 192.59375 C 325.15582 193.1667 325.20487 193.73955 325.10938 194.3125 C 325.01389 194.88545 324.67842 195.31509 324.10547 195.60156 C 323.34154 196.07902 322.05262 196.26932 320.23828 196.17383 C 318.51943 196.07834 317.0873 196.03125 315.94141 196.03125 L 309.20898 196.03125 C 308.44505 196.03125 307.72899 196.07834 307.06055 196.17383 C 306.4876 196.17383 305.91475 196.0777 305.3418 195.88672 C 304.29139 195.60025 303.52824 195.0274 303.05078 194.16797 C 302.57332 193.40404 302.19077 192.5938 301.9043 191.73438 C 301.71332 190.87495 301.42689 190.01567 301.04492 189.15625 C 300.56746 187.62838 300.0417 186.10013 299.46875 184.57227 C 298.9913 183.0444 298.46553 181.56324 297.89258 180.13086 C 297.6061 179.27144 297.31968 178.50829 297.0332 177.83984 C 296.84222 177.07591 296.60483 176.40693 296.31836 175.83398 C 296.03189 175.26103 295.60225 174.78431 295.0293 174.40234 C 294.45635 173.92489 293.69125 173.58942 292.73633 173.39844 L 291.30469 173.39844 C 290.92272 173.30294 290.49308 173.25586 290.01562 173.25586 L 267.38281 173.25586 L 262.08398 173.25586 C 260.26964 173.16037 258.83752 173.49388 257.78711 174.25781 C 257.02318 174.83076 256.49742 175.59586 256.21094 176.55078 C 255.92446 177.50569 255.59095 178.4611 255.20898 179.41602 C 254.44505 181.03937 253.77607 182.75792 253.20312 184.57227 C 252.72567 186.29111 252.15281 188.00966 251.48438 189.72852 C 251.10241 190.68343 250.71986 191.68592 250.33789 192.73633 C 250.05141 193.78674 249.52761 194.59893 248.76367 195.17188 C 248.28622 195.55384 247.57015 195.84026 246.61523 196.03125 C 245.75581 196.12674 244.75137 196.17383 243.60547 196.17383 L 240.3125 196.17383 C 239.1666 196.07834 238.16411 196.03125 237.30469 196.03125 C 236.0633 196.03125 234.53505 196.07834 232.7207 196.17383 C 231.00186 196.17383 229.76003 195.93448 228.99609 195.45703 C 228.51863 195.17055 228.23221 194.74092 228.13672 194.16797 C 228.13672 193.59502 228.1838 193.02217 228.2793 192.44922 C 228.47028 191.78078 228.66254 191.16084 228.85352 190.58789 C 229.0445 190.01494 229.2348 189.53822 229.42578 189.15625 C 230.3807 186.95994 231.23997 184.71563 232.00391 182.42383 C 232.86333 180.13203 233.7226 177.88771 234.58203 175.69141 C 234.964 174.92747 235.25042 174.16237 235.44141 173.39844 C 235.63239 172.6345 235.91881 171.87136 236.30078 171.10742 C 237.06471 169.1021 237.82982 167.05004 238.59375 164.94922 C 239.35768 162.84841 240.12083 160.79439 240.88477 158.78906 C 241.6487 156.87923 242.36476 155.01746 243.0332 153.20312 C 243.70165 151.29329 244.41771 149.38249 245.18164 147.47266 C 247.37795 142.22062 249.38293 136.92175 251.19727 131.57422 C 253.1071 126.22669 255.16112 120.92587 257.35742 115.67383 C 257.54841 115.19637 257.69162 114.76673 257.78711 114.38477 C 257.8826 114.0028 258.02581 113.57316 258.2168 113.0957 C 258.98073 111.09038 259.74388 109.03832 260.50781 106.9375 C 261.27175 104.83668 262.08394 102.78267 262.94336 100.77734 C 263.42082 99.726935 263.80337 98.677361 264.08984 97.626953 C 264.47181 96.481053 265.09175 95.572738 265.95117 94.904297 C 266.42863 94.617822 267.05052 94.380436 267.81445 94.189453 C 268.00543 94.093962 268.19573 94.093962 268.38672 94.189453 C 268.5777 94.189453 268.768 94.140413 268.95898 94.044922 L 281.56445 94.044922 L 284.71484 94.044922 C 285.00132 94.021049 285.27266 94.015407 285.5293 94.027344 z M 276.4082 122.55078 C 276.21722 122.74176 276.02496 122.88498 275.83398 122.98047 C 275.643 123.07596 275.4527 123.21917 275.26172 123.41016 C 274.49779 124.36507 273.92494 125.51077 273.54297 126.84766 C 273.2565 128.18454 272.87394 129.47345 272.39648 130.71484 C 271.25058 133.38861 270.20101 136.10965 269.24609 138.87891 C 268.38667 141.64816 267.43127 144.41824 266.38086 147.1875 C 265.99889 148.14242 265.66538 149.09587 265.37891 150.05078 C 265.09243 150.91021 264.806 151.86561 264.51953 152.91602 C 264.23305 153.67995 264.28014 154.53922 264.66211 155.49414 C 265.13957 156.16258 265.90272 156.54513 266.95312 156.64062 C 268.09902 156.73611 269.24668 156.7832 270.39258 156.7832 L 281.27734 156.7832 L 284.14258 156.7832 C 285.19299 156.7832 286.09935 156.68903 286.86328 156.49805 C 288.10467 156.02059 288.67752 155.2084 288.58203 154.0625 C 288.48654 152.9166 288.20012 151.81798 287.72266 150.76758 C 287.53167 150.38561 287.4375 150.0521 287.4375 149.76562 C 287.4375 149.38366 287.34137 149.00111 287.15039 148.61914 C 285.909 145.37242 284.7633 142.07853 283.71289 138.73633 C 282.66248 135.39412 281.4697 132.05119 280.13281 128.70898 C 279.94183 128.23153 279.74958 127.65868 279.55859 126.99023 C 279.36761 126.2263 279.12827 125.55733 278.8418 124.98438 C 278.55532 124.31593 278.22181 123.74308 277.83984 123.26562 C 277.45788 122.78817 276.98115 122.55078 276.4082 122.55078 z "
           style="fill:#c5a6e8;fill-opacity:1;stroke:none;stroke-width:2.5;stroke-linecap:round;stroke-linejoin:round;stroke-miterlimit:4;stroke-dasharray:none;stroke-dashoffset:0" />
        <path
           id="rect7330-6-6-7"
           transform="translate(192.93914,-34.345187)"
           d="M 195.21875 239.71875 L 195.21875 402.57617 L 358.07422 402.57617 L 358.07422 239.71875 L 195.21875 239.71875 z M 225.72461 270.08203 L 244.49023 270.08203 L 249.07227 270.08203 C 250.69563 270.08203 251.93746 270.4175 252.79688 271.08594 C 253.46532 271.5634 253.944 272.27946 254.23047 273.23438 L 255.08984 275.8125 C 255.6628 277.34037 256.1866 278.9157 256.66406 280.53906 C 257.23701 282.06693 257.80986 283.64227 258.38281 285.26562 C 260.57912 291.28161 262.63314 297.39266 264.54297 303.59961 C 266.5483 309.80657 268.69648 315.96666 270.98828 322.07812 C 271.75221 323.98796 272.42119 325.94585 272.99414 327.95117 C 273.56709 329.95649 274.23607 331.91439 275 333.82422 L 275.57227 335.25586 C 275.76325 335.73331 276.09676 336.11586 276.57422 336.40234 L 277.14844 336.6875 C 277.33942 336.78299 277.52972 336.73591 277.7207 336.54492 C 278.48464 336.35394 279.0104 335.78109 279.29688 334.82617 C 279.58335 333.87126 279.86977 333.01198 280.15625 332.24805 C 280.92018 330.05174 281.5872 327.90355 282.16016 325.80273 C 282.8286 323.60643 283.54661 321.4092 284.31055 319.21289 L 290.03906 301.73828 L 295.76953 283.97656 C 296.24699 282.4487 296.72371 280.96949 297.20117 279.53711 L 298.63281 274.95312 L 299.49219 272.66211 C 299.77866 271.89818 300.30443 271.27628 301.06836 270.79883 C 301.64131 270.32137 302.35737 270.08203 303.2168 270.08203 L 306.08203 270.08203 L 315.39258 270.08203 L 325.27539 270.08203 L 327.85352 270.08203 C 328.80843 270.08203 329.52449 270.27428 330.00195 270.65625 C 331.05236 271.2292 331.57812 272.32781 331.57812 273.95117 L 331.57812 278.67773 L 331.57812 300.16211 L 331.57812 353.44727 L 331.57812 365.9082 C 331.57812 366.95861 331.53103 368.01014 331.43555 369.06055 C 331.43555 370.01547 331.14913 370.73152 330.57617 371.20898 C 330.00323 371.68644 329.28716 371.97287 328.42773 372.06836 L 325.5625 372.06836 L 318.6875 372.06836 L 314.81836 372.06836 C 314.05443 371.87738 313.38741 371.73417 312.81445 371.63867 C 312.33699 371.54318 311.90736 371.20771 311.52539 370.63477 C 311.14342 370.15731 310.95117 369.53737 310.95117 368.77344 L 310.95117 366.33789 L 310.95117 359.0332 L 310.95117 322.2207 C 310.85569 320.88382 310.80859 319.64395 310.80859 318.49805 L 310.80859 314.77344 L 310.80859 312.48047 C 310.90408 311.62104 310.857 310.81081 310.66602 310.04688 C 310.47504 309.37844 310.37891 308.66237 310.37891 307.89844 C 310.37891 307.1345 310.09248 306.65583 309.51953 306.46484 C 309.23306 306.36935 308.99372 306.41839 308.80273 306.60938 C 308.70725 306.80036 308.61307 306.94357 308.51758 307.03906 C 308.13561 307.42103 307.80015 307.89775 307.51367 308.4707 L 306.94141 309.90234 C 306.36845 311.33472 305.7956 312.81588 305.22266 314.34375 C 304.7452 315.87162 304.21944 317.39987 303.64648 318.92773 L 303.07422 320.64648 C 302.97873 321.21944 302.78648 321.79229 302.5 322.36523 C 302.02255 323.60663 301.5929 324.8465 301.21094 326.08789 C 300.82897 327.32928 300.39934 328.57111 299.92188 329.8125 C 299.73089 330.09897 299.63672 330.43444 299.63672 330.81641 C 299.63672 331.10289 299.54059 331.38931 299.34961 331.67578 C 298.96764 332.53521 298.63413 333.44157 298.34766 334.39648 C 298.15667 335.3514 297.82121 336.30681 297.34375 337.26172 C 296.96178 338.12115 296.62827 339.02751 296.3418 339.98242 C 296.15082 340.93734 295.86439 341.89274 295.48242 342.84766 C 294.33652 345.61692 293.33404 348.43407 292.47461 351.29883 C 291.61518 354.06808 290.65978 356.83621 289.60938 359.60547 C 289.41839 359.89194 289.32227 360.17837 289.32227 360.46484 C 289.32227 360.75132 289.22809 361.0397 289.03711 361.32617 C 288.55965 362.37658 288.1771 363.47324 287.89062 364.61914 C 287.60415 365.66955 287.2216 366.72107 286.74414 367.77148 C 286.45767 368.43992 286.17125 369.05987 285.88477 369.63281 C 285.69379 370.20577 285.36027 370.68249 284.88281 371.06445 C 284.40535 371.44642 283.92863 371.68576 283.45117 371.78125 C 282.97371 371.78125 282.39891 371.87738 281.73047 372.06836 L 278.4375 372.06836 C 277.76905 372.06836 276.95687 372.11544 276.00195 372.21094 L 273.28125 372.21094 C 272.42182 372.21094 271.60964 372.16385 270.8457 372.06836 C 270.08177 371.97287 269.50892 371.78061 269.12695 371.49414 C 268.36302 371.01668 267.83725 370.49287 267.55078 369.91992 C 267.2643 369.25148 266.93079 368.48638 266.54883 367.62695 C 266.07137 366.48105 265.64173 365.33535 265.25977 364.18945 C 264.97329 362.94806 264.59073 361.75528 264.11328 360.60938 L 263.68359 359.32031 C 263.20614 358.17442 262.7765 356.97967 262.39453 355.73828 C 262.01256 354.40139 261.58293 353.16153 261.10547 352.01562 C 261.00998 351.72915 260.91385 351.48981 260.81836 351.29883 C 260.81836 351.01235 260.77127 350.72593 260.67578 350.43945 C 260.19832 349.58003 259.81577 348.67171 259.5293 347.7168 C 259.24282 346.76188 258.90931 345.80843 258.52734 344.85352 C 258.43186 344.66253 258.33573 344.42319 258.24023 344.13672 C 258.24023 343.85025 258.19315 343.61091 258.09766 343.41992 C 257.71569 342.46501 257.38022 341.51156 257.09375 340.55664 C 256.90276 339.60173 256.56925 338.64633 256.0918 337.69141 C 255.32786 335.78157 254.61181 333.77659 253.94336 331.67578 C 253.27492 329.57497 252.55886 327.52095 251.79492 325.51562 C 250.9355 323.12833 250.12331 320.69372 249.35938 318.21094 C 248.59544 315.72815 247.68909 313.34063 246.63867 311.04883 C 246.16122 309.71195 245.63545 308.61333 245.0625 307.75391 C 244.87152 307.56292 244.68122 307.41971 244.49023 307.32422 C 244.29925 307.13323 244.05992 307.13323 243.77344 307.32422 C 243.29598 307.61069 243.05664 308.08937 243.05664 308.75781 C 243.05664 309.42625 242.96247 310.09327 242.77148 310.76172 C 242.5805 311.43016 242.48437 312.14622 242.48438 312.91016 C 242.57986 313.5786 242.62695 314.29466 242.62695 315.05859 L 242.62695 318.21094 C 242.62695 319.26134 242.57986 320.31092 242.48438 321.36133 L 242.48438 359.46289 L 242.48438 366.48242 L 242.48438 368.77344 C 242.48438 369.53737 242.29408 370.15731 241.91211 370.63477 C 241.53014 371.30321 240.81409 371.73285 239.76367 371.92383 C 239.09523 372.11481 238.37721 372.21094 237.61328 372.21094 C 236.84935 372.11544 236.0862 372.06836 235.32227 372.06836 L 227.875 372.06836 L 225.00977 372.06836 C 224.15034 371.97287 223.43427 371.68644 222.86133 371.20898 C 222.28838 370.73152 221.95292 370.01547 221.85742 369.06055 C 221.76193 368.01014 221.71484 366.95861 221.71484 365.9082 L 221.71484 353.30469 L 221.71484 300.01953 L 221.71484 279.9668 L 221.71484 277.96094 L 221.71484 275.52539 C 221.71484 274.76146 221.76193 274.04539 221.85742 273.37695 C 221.95292 272.61302 222.09613 272.04017 222.28711 271.6582 C 222.66908 270.98976 223.43418 270.51304 224.58008 270.22656 C 224.77106 270.13107 224.96136 270.13107 225.15234 270.22656 C 225.34332 270.22656 225.53362 270.17752 225.72461 270.08203 z "
           style="fill:#c5a6e8;fill-opacity:1;stroke:none;stroke-width:2.5;stroke-linecap:round;stroke-linejoin:round;stroke-miterlimit:4;stroke-dasharray:none;stroke-dashoffset:0" />
        <path
           id="rect7330-6-7"
           transform="translate(192.93914,-34.345187)"
           d="M 371.25586 239.71875 L 371.25586 402.57617 L 534.11133 402.57617 L 534.11133 239.71875 L 371.25586 239.71875 z M 390.16211 270.1543 L 401.47852 270.1543 L 404.63086 270.1543 C 405.68127 270.1543 406.4915 270.39363 407.06445 270.87109 C 407.82839 271.44405 408.30707 272.25623 408.49805 273.30664 C 408.78452 274.26155 409.07094 275.26404 409.35742 276.31445 C 409.73939 277.65133 410.0729 279.03442 410.35938 280.4668 C 410.64585 281.80368 410.97936 283.14164 411.36133 284.47852 C 411.55231 284.95598 411.64844 285.38561 411.64844 285.76758 C 411.64844 286.05405 411.69553 286.4366 411.79102 286.91406 C 412.17298 288.25095 412.4594 289.58695 412.65039 290.92383 C 412.93686 292.26071 413.27233 293.59866 413.6543 294.93555 C 414.03626 295.98595 414.32269 297.08262 414.51367 298.22852 C 414.70465 299.37442 414.94204 300.52012 415.22852 301.66602 C 416.18344 304.81724 416.94854 308.01696 417.52148 311.26367 C 418.18993 314.51039 418.95308 317.71011 419.8125 320.86133 C 420.28996 322.29371 420.62543 323.72583 420.81641 325.1582 C 421.10289 326.59058 421.43639 328.0227 421.81836 329.45508 C 422.20033 330.60098 422.48675 331.60346 422.67773 332.46289 C 422.86872 333.22682 423.34544 333.98997 424.10938 334.75391 C 424.30036 334.75391 424.39648 334.80294 424.39648 334.89844 C 424.49198 334.89844 424.63519 334.8494 424.82617 334.75391 C 425.39913 334.56293 425.82876 334.03911 426.11523 333.17969 L 426.83203 331.03125 C 427.214 329.78986 427.50043 328.54803 427.69141 327.30664 C 427.97789 325.96976 428.36044 324.68085 428.83789 323.43945 C 428.93338 322.96199 429.02755 322.53236 429.12305 322.15039 L 429.41016 320.7168 C 429.88762 319.4754 430.22112 318.23553 430.41211 316.99414 C 430.69858 315.65726 431.03405 314.36639 431.41602 313.125 L 431.70117 311.98047 C 431.79667 311.5985 431.89279 311.16887 431.98828 310.69141 C 432.27475 309.83199 432.51409 308.97271 432.70508 308.11328 C 432.89606 307.15836 433.13345 306.25004 433.41992 305.39062 C 433.61091 304.62669 433.70703 304.05384 433.70703 303.67188 L 434.2793 301.66602 L 434.85352 299.66211 C 435.71294 296.98834 436.42901 294.31439 437.00195 291.64062 C 437.57491 288.87136 438.24388 286.15033 439.00781 283.47656 C 439.48527 282.13968 439.81878 280.80173 440.00977 279.46484 C 440.29624 278.12796 440.62975 276.79196 441.01172 275.45508 C 441.39369 274.40467 441.72915 273.44927 442.01562 272.58984 C 442.3021 271.63493 442.96912 270.91887 444.01953 270.44141 C 444.68797 270.25042 445.45307 270.1543 446.3125 270.1543 L 448.89062 270.1543 L 457.3418 270.1543 C 458.39221 270.1543 459.34566 270.20138 460.20508 270.29688 C 461.16 270.29688 461.97218 270.53621 462.64062 271.01367 C 463.30906 271.49113 463.7387 272.2072 463.92969 273.16211 C 464.12067 274.02154 464.36 274.92985 464.64648 275.88477 C 465.12394 277.60362 465.55358 279.36925 465.93555 281.18359 C 466.31751 282.90245 466.74715 284.621 467.22461 286.33984 C 467.60658 287.58124 467.893 288.82306 468.08398 290.06445 C 468.37046 291.30584 468.70397 292.54767 469.08594 293.78906 C 469.37241 294.83947 469.61175 295.88905 469.80273 296.93945 C 469.99371 297.89437 470.28014 298.89686 470.66211 299.94727 C 471.71252 303.48046 472.62083 307.10981 473.38477 310.83398 C 474.1487 314.46267 475.05506 318.04299 476.10547 321.57617 C 476.58292 323.00855 476.91644 324.48971 477.10742 326.01758 C 477.3939 327.54544 477.77645 328.97757 478.25391 330.31445 C 478.54038 331.26937 478.77972 332.17573 478.9707 333.03516 C 479.16168 333.79909 479.4952 334.51515 479.97266 335.18359 C 480.06814 335.27909 480.30749 335.42229 480.68945 335.61328 L 481.26172 335.61328 C 481.35721 335.51779 481.45333 335.4707 481.54883 335.4707 L 481.83398 335.18359 C 482.40694 334.41966 482.78949 333.60942 482.98047 332.75 C 483.17146 331.79508 483.41079 330.83968 483.69727 329.88477 C 484.17473 328.3569 484.50824 326.82865 484.69922 325.30078 C 484.9857 323.77291 485.36825 322.24466 485.8457 320.7168 C 487.0871 316.51516 488.08958 312.31491 488.85352 308.11328 C 489.71294 303.91165 490.76251 299.70945 492.00391 295.50781 C 492.48136 293.97995 492.81683 292.45169 493.00781 290.92383 C 493.29429 289.39596 493.67684 287.86771 494.1543 286.33984 C 494.34528 285.86238 494.43945 285.48179 494.43945 285.19531 C 494.43945 284.81335 494.48849 284.38371 494.58398 283.90625 C 494.96595 282.56937 495.29946 281.23142 495.58594 279.89453 C 495.87242 278.55765 496.20592 277.22165 496.58789 275.88477 C 496.77887 275.12083 496.97112 274.26155 497.16211 273.30664 C 497.44858 272.35172 497.87823 271.6337 498.45117 271.15625 C 499.11962 270.67879 499.92985 270.39237 500.88477 270.29688 C 501.83969 270.20138 502.9383 270.1543 504.17969 270.1543 L 512.34375 270.1543 L 515.06641 270.1543 C 516.02133 270.1543 516.83351 270.2975 517.50195 270.58398 C 518.45687 271.06144 518.8865 271.87363 518.79102 273.01953 C 518.69552 274.16543 518.50327 275.215 518.2168 276.16992 C 517.45286 278.36623 516.78389 280.70667 516.21094 283.18945 C 515.73348 285.57674 515.11354 287.91523 514.34961 290.20703 C 514.15863 290.77998 514.01542 291.35283 513.91992 291.92578 C 513.82443 292.40324 513.68121 292.92901 513.49023 293.50195 C 513.01277 295.12531 512.53605 296.84386 512.05859 298.6582 C 511.67663 300.37706 511.24698 302.04852 510.76953 303.67188 C 510.57854 304.14933 510.43534 304.62606 510.33984 305.10352 C 510.33984 305.58098 510.24371 306.05965 510.05273 306.53711 C 509.57527 307.7785 509.19272 309.02033 508.90625 310.26172 C 508.71526 311.50311 508.38175 312.74298 507.9043 313.98438 C 507.71331 314.46183 507.61719 314.89147 507.61719 315.27344 C 507.61719 315.6554 507.52301 316.08699 507.33203 316.56445 C 506.85457 317.90134 506.47202 319.28442 506.18555 320.7168 C 505.99456 322.05368 505.66105 323.39163 505.18359 324.72852 L 504.32227 327.59375 C 504.13129 328.45317 503.8939 329.35953 503.60742 330.31445 C 502.46152 333.94313 501.45903 337.61957 500.59961 341.34375 C 499.83568 345.06792 498.83319 348.69728 497.5918 352.23047 C 497.40081 352.89892 497.2576 353.51885 497.16211 354.0918 C 497.06662 354.66475 496.92341 355.28469 496.73242 355.95312 C 496.25497 357.57649 495.77629 359.29503 495.29883 361.10938 C 494.91686 362.82822 494.44014 364.49969 493.86719 366.12305 C 493.48522 367.36444 493.14975 368.51014 492.86328 369.56055 C 492.57681 370.61095 491.86074 371.37606 490.71484 371.85352 C 490.0464 372.0445 489.23617 372.13867 488.28125 372.13867 L 485.55859 372.13867 L 476.24805 372.13867 L 473.24023 372.13867 C 472.28531 372.04318 471.47313 371.75676 470.80469 371.2793 C 470.23173 370.80184 469.85114 370.22899 469.66016 369.56055 C 469.46917 368.79661 469.22983 368.03346 468.94336 367.26953 C 468.37041 365.3597 467.89369 363.49793 467.51172 361.68359 C 467.12975 359.77376 466.70012 357.86296 466.22266 355.95312 C 465.84069 354.80723 465.50522 353.66152 465.21875 352.51562 C 465.02776 351.27423 464.74134 350.0324 464.35938 348.79102 C 464.0729 347.93159 463.83552 347.07232 463.64453 346.21289 C 463.54904 345.25798 463.35679 344.35161 463.07031 343.49219 C 462.30638 341.20039 461.68644 338.85995 461.20898 336.47266 C 460.73152 333.98988 460.15867 331.55526 459.49023 329.16797 C 459.01277 327.83108 458.63022 326.54217 458.34375 325.30078 C 458.15276 324.05939 457.86634 322.77048 457.48438 321.43359 C 457.00691 319.81024 456.62436 318.2349 456.33789 316.70703 C 456.05142 315.17916 455.67082 313.65091 455.19336 312.12305 C 454.90689 311.35911 454.66755 310.64305 454.47656 309.97461 C 454.38108 309.30616 454.14173 308.68623 453.75977 308.11328 C 453.56878 307.92229 453.28236 307.73004 452.90039 307.53906 C 452.61392 307.44357 452.42362 307.44357 452.32812 307.53906 C 451.65969 307.73004 451.18296 308.30289 450.89648 309.25781 C 450.61 310.21273 450.37067 311.02491 450.17969 311.69336 C 449.51125 313.69868 448.98548 315.79978 448.60352 317.99609 C 448.22155 320.09691 447.74483 322.19801 447.17188 324.29883 C 445.93049 328.59595 444.83187 332.89233 443.87695 337.18945 C 443.01753 341.48658 441.96795 345.78491 440.72656 350.08203 C 440.2491 351.6099 439.86655 353.1362 439.58008 354.66406 C 439.38909 356.09644 439.05558 357.5776 438.57812 359.10547 C 438.10067 360.44236 437.71812 361.77835 437.43164 363.11523 C 437.24066 364.45212 436.95423 365.79007 436.57227 367.12695 C 436.28579 368.08187 435.99937 368.94114 435.71289 369.70508 C 435.52191 370.46901 435.04323 371.08895 434.2793 371.56641 C 433.61086 371.94837 432.80062 372.13867 431.8457 372.13867 L 428.83789 372.13867 L 416.375 372.13867 C 415.70656 371.94769 415.13371 371.85352 414.65625 371.85352 C 414.1788 371.75802 413.70207 371.51869 413.22461 371.13672 C 412.46068 370.65927 411.982 369.89612 411.79102 368.8457 C 411.60004 367.6998 411.36265 366.60119 411.07617 365.55078 C 410.59871 364.02291 410.12004 362.44758 409.64258 360.82422 C 409.26061 359.20087 408.83098 357.57648 408.35352 355.95312 C 408.16254 355.38017 408.01932 354.85636 407.92383 354.37891 C 407.92383 353.80595 407.82965 353.18407 407.63867 352.51562 C 407.06572 350.89226 406.58704 349.26984 406.20508 347.64648 C 405.82311 346.02312 405.39348 344.39875 404.91602 342.77539 C 404.72504 342.39342 404.63086 342.05991 404.63086 341.77344 C 404.63086 341.39147 404.58182 341.00892 404.48633 340.62695 C 404.00887 339.29007 403.57923 337.90503 403.19727 336.47266 C 402.91079 334.94479 402.52824 333.46558 402.05078 332.0332 C 401.95529 331.74673 401.9082 331.46031 401.9082 331.17383 C 401.9082 330.88735 401.81208 330.55384 401.62109 330.17188 C 401.14363 328.83499 400.76304 327.49704 400.47656 326.16016 C 400.28558 324.72778 399.95012 323.29565 399.47266 321.86328 L 398.61328 318.99805 C 398.4223 317.94764 398.18491 316.94515 397.89844 315.99023 C 397.61196 315.03532 397.37262 314.07992 397.18164 313.125 C 396.99065 312.17009 396.70423 311.21664 396.32227 310.26172 C 395.46285 307.49246 394.6997 304.67529 394.03125 301.81055 C 393.4583 298.94579 392.74029 296.12863 391.88086 293.35938 C 391.68988 292.78642 391.54667 292.21357 391.45117 291.64062 C 391.35568 291.06767 391.21246 290.49482 391.02148 289.92188 C 390.35304 287.91655 389.78019 285.86253 389.30273 283.76172 C 388.82527 281.6609 388.25242 279.5598 387.58398 277.45898 L 386.72461 274.45117 C 386.43814 273.11429 386.53426 272.1118 387.01172 271.44336 C 387.48918 270.87041 388.15816 270.48786 389.01758 270.29688 C 389.20856 270.20138 389.39886 270.20138 389.58984 270.29688 C 389.78083 270.29688 389.97113 270.24979 390.16211 270.1543 z "
           style="fill:#9b49ce;fill-opacity:1;stroke:none;stroke-width:2.5;stroke-linecap:round;stroke-linejoin:round;stroke-miterlimit:4;stroke-dasharray:none;stroke-dashoffset:0" />
        <rect
           style="fill:none;fill-opacity:1;stroke:none;stroke-width:1;stroke-linecap:round;stroke-linejoin:miter;stroke-miterlimit:4;stroke-dasharray:none;stroke-dashoffset:0"
           id="rect7412-98"
           width="337.89432"
           height="337.89432"
           x="388.65704"
           y="29.836142" />
      </g>
    </g>
  </g>
</svg>
